# Blender v2.90.1 OBJ File: ''
# www.blender.org
o Cube.001
v 1.009405 -0.034019 -0.048036
v 0.758941 0.059515 0.024693
v 0.794555 -0.030263 0.050905
v -0.255888 -0.067250 0.356139
v -0.381793 0.140281 0.358046
v -0.511271 0.116319 0.544611
v -0.489668 -0.023033 0.459836
v 0.705416 -0.122828 -0.043406
v 0.191715 0.079897 0.176376
v 0.254939 0.102524 0.055762
v 0.207605 0.210504 -0.036861
v 0.101918 0.194971 -0.035286
v -0.826827 0.045925 1.376219
v -0.864527 0.077017 0.786637
v -1.231560 0.057255 0.803851
v -1.171691 0.040118 1.371623
v -0.447825 0.175016 -0.027220
v -0.420056 -0.197053 -0.026818
v -0.882495 -0.039720 0.324977
v -0.902651 -0.180450 -0.019811
v -0.906162 0.155846 -0.020489
v -0.878118 0.107566 0.496334
v 0.125725 -0.182195 -0.034818
v 0.329988 -0.118462 0.155410
v 0.702010 0.099421 -0.043839
v 0.457804 0.169888 0.029840
v 0.435904 -0.018024 0.084229
v 0.384913 -0.151408 -0.038666
v 0.446031 0.218337 -0.040359
v 0.297556 -0.048328 0.087914
v 0.165613 -0.163017 -0.035440
v -1.172575 0.024101 1.372228
v -1.329449 0.065710 0.777932
v -1.335074 0.034051 0.778725
v -1.261932 -0.035614 0.338022
v -1.291888 -0.180852 -0.014128
v -0.826778 0.026871 1.377182
v -1.461393 -0.141392 -0.011739
v -1.448201 0.036279 0.348183
v -1.659178 0.021336 0.673779
v -1.621162 -0.075184 0.184589
v -1.693388 -0.121343 -0.008397
v -1.659853 -0.063256 0.147062
v -1.854866 -0.037614 0.107528
v -1.871874 -0.066775 -0.005911
v -1.446600 0.111125 0.440551
v -1.445920 0.146046 0.303501
v -1.577781 0.137054 0.291482
v -1.574130 0.165118 0.278591
v -1.437849 0.161665 0.227216
v -1.460615 0.126018 -0.012330
v -1.697797 0.110836 -0.008836
v -1.669721 0.106437 0.184670
v -1.663324 0.049960 0.674247
v -1.851208 0.046646 0.103611
v -1.869953 0.066111 -0.006227
v -1.947073 0.036362 0.256177
v -1.825523 0.030463 0.687117
v -1.827838 0.017192 0.694739
v -0.865411 0.004606 0.789461
v -0.614720 0.046588 0.845028
v -1.222881 -0.000635 0.797656
v -0.599504 0.082527 0.809934
v -1.261972 0.095021 0.494423
v -1.943385 0.006045 0.257310
v -1.665261 0.015146 0.142902
v -1.296266 0.151062 -0.014783
v -1.299557 0.147200 0.236431
v -1.252867 0.162743 0.271266
v -1.300793 0.157380 0.305804
v -1.563486 0.492058 0.373964
v -1.680477 0.493174 0.376932
v -1.426522 0.429307 0.359468
v 0.791760 -0.030677 -0.140679
v 0.756919 0.059214 -0.113827
v -0.267144 -0.068918 -0.414964
v -0.503853 -0.025135 -0.511984
v -0.527929 0.113850 -0.596696
v -0.393062 0.138611 -0.414095
v 0.185507 0.078978 -0.248977
v 0.252223 0.102121 -0.130362
v -0.867616 0.039877 -1.418424
v -1.212199 0.034111 -1.403740
v -1.255474 0.053709 -0.834543
v -0.888096 0.073520 -0.828135
v -0.892575 -0.041213 -0.365648
v -0.893211 0.105327 -0.537694
v 0.324343 -0.119299 -0.231197
v 0.432286 -0.018560 -0.163573
v 0.455753 0.169583 -0.110661
v 0.293891 -0.048870 -0.163090
v -1.213099 0.018093 -1.404251
v -1.358210 0.030620 -0.806307
v -1.352566 0.062284 -0.805815
v -1.272230 -0.037141 -0.367629
v -0.867595 0.020820 -1.419306
v -1.626828 -0.076023 -0.203607
v -1.679112 0.018382 -0.691893
v -1.458720 0.034719 -0.372659
v -1.858185 -0.038108 -0.119921
v -1.664409 -0.063930 -0.165019
v -1.459821 0.109165 -0.465358
v -1.683270 0.047003 -0.692364
v -1.675380 0.105598 -0.203057
v -1.444852 0.160627 -0.252592
v -1.582576 0.163867 -0.299980
v -1.586599 0.135748 -0.312639
v -1.455145 0.144679 -0.328537
v -1.854422 0.046170 -0.116479
v -1.845776 0.027459 -0.700411
v -1.954697 0.035233 -0.266135
v -1.848311 0.014157 -0.707904
v -0.889056 0.001100 -0.830617
v -0.640097 0.042825 -0.893661
v -1.246613 -0.004153 -0.828355
v -0.623867 0.078915 -0.859182
v -1.276843 0.092815 -0.524526
v -1.951040 0.004909 -0.267244
v -1.669699 0.014489 -0.161041
v -1.310149 0.155994 -0.335125
v -1.261235 0.161501 -0.302024
v -1.306886 0.146112 -0.265776
v -1.691768 0.491500 -0.396594
v -1.574739 0.490388 -0.397038
v -1.437407 0.427694 -0.386273
vt 0.625000 0.375000
vt 0.625000 0.455059
vt 0.460368 0.457316
vt 0.375000 0.625000
vt 0.625000 0.625000
vt 0.625000 0.644107
vt 0.375000 0.645466
vt 0.250000 0.500000
vt 0.332316 0.500000
vt 0.250000 0.585087
vt 0.625000 0.500000
vt 0.639405 0.500000
vt 0.750000 0.618134
vt 0.750000 0.637631
vt 0.625000 0.750000
vt 0.685082 0.750000
vt 0.678329 0.750000
vt 0.625000 0.750000
vt 0.750000 0.693815
vt 0.250000 0.693838
vt 0.286144 0.750000
vt 0.250000 0.750000
vt 0.750000 0.750000
vt 0.705201 0.750000
vt 0.250000 0.637676
vt 0.375000 0.500000
vt 0.750000 0.587988
vt 0.669941 0.500000
vt 0.750000 0.500000
vt 0.625000 0.473100
vt 0.417186 0.478907
vt 0.353907 0.500000
vt 0.250000 0.611771
vt 0.750000 0.607322
vt 0.651900 0.500000
vt 0.625000 0.485595
vt 0.395681 0.489660
vt 0.364660 0.500000
vt 0.250000 0.623669
vt 0.375000 0.750000
vt 0.625000 0.750000
vt 0.375000 0.750000
vt 0.288211 0.750000
vt 0.250000 0.750000
vt 0.375000 0.750000
vt 0.250000 0.750000
vt 0.375000 0.750000
vt 0.375000 0.750000
vt 0.279177 0.750000
vt 0.250000 0.750000
vt 0.375000 0.750000
vt 0.375000 0.750000
vt 0.375000 0.750000
vt 0.250000 0.750000
vt 0.625000 0.750000
vt 0.648054 0.750000
vt 0.683830 0.750000
vt 0.706345 0.750000
vt 0.671221 0.750000
vt 0.750000 0.750000
vt 0.750000 0.750000
vt 0.720479 0.750000
vt 0.625000 0.750000
vt 0.625000 0.750000
vt 0.625000 0.875000
vt 0.375000 0.875000
vt 0.625000 0.750000
vt 0.625000 0.750000
vt 0.625000 0.750000
vt 0.375000 0.750000
vt 0.316899 0.750000
vt 0.375000 0.677811
vt 0.318115 0.750000
vt 0.625000 0.670758
vt 0.704494 0.750000
vt 0.375000 0.750000
vt 0.625000 0.750000
vt 0.750000 0.750000
vt 0.750000 0.750000
vt 0.721932 0.750000
vt 0.715016 0.750000
vt 0.715584 0.750000
vt 0.648054 0.750000
vt 0.683830 0.750000
vt 0.706345 0.750000
vt 0.671221 0.750000
vt 0.715016 0.750000
vt 0.721932 0.750000
vt 0.715584 0.750000
vt 0.460368 0.457316
vt 0.625000 0.455059
vt 0.375000 0.625000
vt 0.375000 0.645466
vt 0.625000 0.644107
vt 0.625000 0.625000
vt 0.332316 0.500000
vt 0.625000 0.500000
vt 0.639405 0.500000
vt 0.625000 0.750000
vt 0.625000 0.750000
vt 0.678329 0.750000
vt 0.685082 0.750000
vt 0.286144 0.750000
vt 0.705201 0.750000
vt 0.375000 0.500000
vt 0.669941 0.500000
vt 0.417186 0.478907
vt 0.625000 0.473100
vt 0.353907 0.500000
vt 0.651900 0.500000
vt 0.395681 0.489660
vt 0.625000 0.485595
vt 0.364660 0.500000
vt 0.375000 0.750000
vt 0.375000 0.750000
vt 0.625000 0.750000
vt 0.288211 0.750000
vt 0.375000 0.750000
vt 0.279177 0.750000
vt 0.375000 0.750000
vt 0.375000 0.750000
vt 0.375000 0.750000
vt 0.375000 0.750000
vt 0.375000 0.750000
vt 0.625000 0.750000
vt 0.625000 0.750000
vt 0.720479 0.750000
vt 0.671221 0.750000
vt 0.706345 0.750000
vt 0.683830 0.750000
vt 0.648054 0.750000
vt 0.625000 0.750000
vt 0.625000 0.750000
vt 0.625000 0.750000
vt 0.625000 0.750000
vt 0.375000 0.750000
vt 0.316899 0.750000
vt 0.375000 0.677811
vt 0.318115 0.750000
vt 0.625000 0.670758
vt 0.704494 0.750000
vt 0.375000 0.750000
vt 0.625000 0.750000
vt 0.715584 0.750000
vt 0.715016 0.750000
vt 0.721932 0.750000
vt 0.683830 0.750000
vt 0.648054 0.750000
vt 0.671221 0.750000
vt 0.706345 0.750000
vt 0.715016 0.750000
vt 0.721932 0.750000
vt 0.715584 0.750000
vn 0.3896 0.3972 0.8309
vn 0.6251 0.0716 0.7773
vn 0.2412 -0.7968 0.5540
vn 0.1907 0.8307 0.5230
vn -0.0275 0.9983 0.0523
vn -0.0261 0.9982 0.0543
vn -0.0351 0.9984 0.0446
vn 0.0729 0.9717 0.2248
vn -0.0466 -0.9368 0.3469
vn -0.0392 0.9946 0.0966
vn 0.0257 -0.9520 0.3050
vn 0.3230 0.1576 0.9332
vn 0.3927 0.8984 0.1969
vn 0.1080 0.2820 0.9533
vn 0.0564 -0.7099 0.7021
vn 0.3587 0.8576 0.3686
vn 0.0130 0.2482 0.9686
vn 0.0993 -0.7369 0.6686
vn -0.9552 0.1381 0.2618
vn 0.0048 -0.9253 0.3793
vn -0.0144 0.0450 0.9989
vn 0.2186 -0.9299 0.2959
vn -0.2589 -0.8737 0.4119
vn 0.0804 0.9965 0.0216
vn -0.2728 -0.8969 0.3480
vn -0.1859 0.9814 0.0490
vn 0.7420 -0.4375 0.5079
vn -0.9872 0.0284 0.1568
vn -0.1819 0.9790 0.0916
vn 0.0881 0.1714 0.9813
vn 0.8265 0.4394 0.3520
vn 0.7244 -0.4553 -0.5176
vn -0.0733 0.7058 0.7046
vn 0.1593 -0.9869 0.0269
vn -0.3051 -0.9499 0.0676
vn 0.0116 -0.9992 0.0395
vn -0.0255 0.9982 0.0543
vn 0.0537 0.9919 0.1153
vn 0.9286 -0.0130 0.3708
vn -0.0403 0.9924 0.1160
vn -0.0400 0.9924 0.1161
vn -0.0349 0.9932 0.1107
vn -0.9467 -0.1708 0.2733
vn -0.9645 0.0225 0.2632
vn -0.2345 -0.0626 -0.9701
vn -0.8347 -0.1650 0.5254
vn -0.1957 0.0465 0.9796
vn -0.3996 0.8080 0.4330
vn -0.1305 -0.9835 0.1252
vn 0.0040 -0.9964 0.0853
vn -0.0349 0.9933 0.1103
vn 0.9479 -0.0544 0.3138
vn 0.0254 0.9945 0.1011
vn -0.0355 0.9564 0.2899
vn 0.0491 -0.9891 0.1389
vn -0.3373 -0.9369 0.0921
vn -0.0283 -0.2251 0.9739
vn -0.0335 0.9974 -0.0633
vn -0.1965 0.2805 -0.9395
vn 0.3980 0.5113 -0.7617
vn -0.8515 -0.1233 -0.5096
vn 0.1054 0.4369 -0.8933
vn 0.5737 0.1049 0.8123
vn 0.0070 -0.1943 0.9809
vn 0.3652 0.3936 -0.8437
vn 0.6021 0.0682 -0.7955
vn 0.2250 -0.7992 -0.5574
vn 0.1753 0.8284 -0.5319
vn -0.0291 0.9980 -0.0559
vn -0.0364 0.9982 -0.0478
vn -0.0278 0.9979 -0.0580
vn 0.0663 0.9707 -0.2310
vn -0.0566 -0.9383 -0.3413
vn -0.0420 0.9941 -0.0997
vn 0.0168 -0.9533 -0.3015
vn 0.2956 0.1536 -0.9429
vn 0.3867 0.8975 -0.2122
vn 0.0801 0.2779 -0.9573
vn 0.0360 -0.7129 -0.7003
vn 0.3477 0.8560 -0.3826
vn -0.0153 0.2440 -0.9696
vn 0.0798 -0.7398 -0.6681
vn -0.9624 0.1370 -0.2344
vn -0.0062 -0.9269 -0.3753
vn -0.0435 0.0407 -0.9982
vn 0.2100 -0.9311 -0.2981
vn -0.2708 -0.8754 -0.4004
vn 0.0796 0.9964 -0.0283
vn -0.2828 -0.8984 -0.3360
vn -0.1873 0.9811 -0.0478
vn 0.7269 -0.4397 -0.5275
vn -0.9914 0.0278 -0.1281
vn -0.1846 0.9786 -0.0905
vn 0.0594 0.1671 -0.9841
vn 0.8158 0.4378 -0.3778
vn 0.7392 -0.4531 0.4982
vn -0.0939 0.7027 -0.7053
vn 0.1585 -0.9870 -0.0273
vn -0.3069 -0.9502 -0.0546
vn 0.0105 -0.9993 -0.0355
vn -0.0272 0.9980 -0.0578
vn 0.0502 0.9914 -0.1211
vn 0.9174 -0.0147 -0.3977
vn -0.0438 0.9919 -0.1191
vn -0.0385 0.9928 -0.1136
vn -0.0440 0.9920 -0.1186
vn -0.9542 -0.1719 -0.2448
vn -0.9718 0.0214 -0.2350
vn -0.2061 -0.0584 0.9768
vn -0.8496 -0.1672 -0.5002
vn -0.2242 0.0423 -0.9736
vn -0.4121 0.8062 -0.4246
vn -0.1341 -0.9840 -0.1171
vn 0.0016 -0.9967 -0.0810
vn -0.0382 0.9928 -0.1136
vn 0.9384 -0.0558 -0.3411
vn 0.0224 0.9941 -0.1062
vn -0.0440 0.9551 -0.2928
vn 0.0451 -0.9897 -0.1360
vn -0.3397 -0.9373 -0.0782
vn -0.0567 -0.2294 -0.9717
vn -0.0316 0.9977 0.0599
vn -0.1690 0.2846 0.9436
vn 0.4201 0.5146 0.7475
vn -0.8363 -0.1211 0.5347
vn 0.1314 0.4408 0.8879
vn 0.5497 0.1014 -0.8292
vn -0.0216 -0.1985 -0.9799
usemtl None
s 1
f 1/1/1 2/2/1 3/3/1
f 4/4/2 5/5/2 6/6/2 7/7/2
f 1/8/3 3/9/3 8/10/3
f 9/11/4 10/12/4 11/13/4 12/14/4
f 13/15/5 14/16/6 15/17/7 16/18/7
f 12/14/8 17/19/8 5/5/8 9/11/8
f 18/20/9 4/4/9 7/7/9 19/21/9 20/22/9
f 17/19/10 21/23/10 22/24/10 6/6/10 5/5/10
f 23/25/11 24/26/11 4/4/11 18/20/11
f 24/26/12 9/11/12 5/5/12 4/4/12
f 25/27/13 2/28/13 1/29/13
f 3/3/14 2/2/14 26/30/14 27/31/14
f 8/10/15 3/9/15 27/32/15 28/33/15
f 29/34/16 26/35/16 2/28/16 25/27/16
f 27/31/17 26/30/17 10/36/17 30/37/17
f 28/33/18 27/32/18 30/38/18 31/39/18
f 32/40/19 16/18/19 33/41/19 34/42/19
f 20/22/20 19/21/20 35/43/20 36/44/20
f 37/45/21 13/15/21 16/18/21 32/40/21
f 38/46/22 39/47/22 40/48/22 41/49/22 42/50/22
f 36/44/23 35/43/23 39/47/23 38/46/23
f 16/18/24 15/17/24 33/41/24
f 42/50/25 41/51/25 43/52/25 44/53/25 45/54/25
f 46/55/26 47/56/26 48/57/26 49/58/26 50/59/26 51/60/26 52/61/26 53/62/26 54/63/26
f 39/47/27 46/55/27 54/63/27 40/48/27
f 44/53/28 55/64/28 56/65/28 45/66/28
f 54/63/29 53/67/29 57/68/29 58/69/29
f 40/48/30 54/63/30 58/69/30 59/70/30
f 30/37/31 10/36/31 9/11/31 24/26/31
f 31/39/32 30/38/32 24/26/32 23/25/32
f 11/13/33 10/12/33 26/35/33 29/34/33
f 60/71/34 61/72/34 37/45/34
f 34/42/35 62/73/35 32/40/35
f 62/73/36 60/71/36 37/45/36 32/40/36
f 63/74/37 14/16/6 13/15/5
f 33/41/38 15/17/38 64/75/38 46/55/38
f 61/72/39 63/74/39 13/15/39 37/45/39
f 15/17/40 14/16/41 22/24/42 64/75/40
f 34/42/43 33/41/43 46/55/43 39/47/43
f 59/70/44 58/69/44 57/68/44 65/76/44
f 65/76/45 57/68/45 53/67/45 41/51/45
f 41/51/46 53/67/46 66/77/46 43/52/46
f 43/52/47 66/77/47 55/64/47 44/53/47
f 53/62/48 52/61/48 56/78/48 55/64/48 66/77/48
f 41/49/49 40/48/49 59/70/49 65/76/49
f 35/43/50 19/21/50 60/71/50 62/73/50
f 6/6/51 22/24/42 14/16/41 63/74/51
f 7/7/52 6/6/52 63/74/52 61/72/52
f 64/75/53 22/24/53 21/23/53 67/79/53 68/80/53 69/81/53 70/82/53
f 46/55/54 64/75/54 70/82/54 47/56/54
f 19/21/55 7/7/55 61/72/55 60/71/55
f 39/47/56 35/43/56 62/73/56 34/42/56
f 48/57/57 47/56/57 71/83/57 72/84/57
f 50/59/58 68/80/58 67/79/58 51/60/58
f 50/59/59 49/58/59 72/85/59 71/86/59
f 69/81/60 68/80/60 73/87/60
f 49/58/61 48/57/61 72/85/61
f 68/80/62 50/59/62 71/86/62 73/88/62
f 70/82/63 69/81/63 73/89/63
f 70/82/64 73/89/64 71/83/64 47/56/64
f 1/1/65 74/90/65 75/91/65
f 76/92/66 77/93/66 78/94/66 79/95/66
f 1/8/67 8/10/67 74/96/67
f 80/97/68 12/14/68 11/13/68 81/98/68
f 82/99/69 83/100/70 84/101/70 85/102/71
f 12/14/72 80/97/72 79/95/72 17/19/72
f 18/20/73 20/22/73 86/103/73 77/93/73 76/92/73
f 17/19/74 79/95/74 78/94/74 87/104/74 21/23/74
f 23/25/75 18/20/75 76/92/75 88/105/75
f 88/105/76 76/92/76 79/95/76 80/97/76
f 25/27/77 1/29/77 75/106/77
f 74/90/78 89/107/78 90/108/78 75/91/78
f 8/10/79 28/33/79 89/109/79 74/96/79
f 29/34/80 25/27/80 75/106/80 90/110/80
f 89/107/81 91/111/81 81/112/81 90/108/81
f 28/33/82 31/39/82 91/113/82 89/109/82
f 92/114/83 93/115/83 94/116/83 83/100/83
f 20/22/84 36/44/84 95/117/84 86/103/84
f 96/118/85 92/114/85 83/100/85 82/99/85
f 38/46/86 42/50/86 97/119/86 98/120/86 99/121/86
f 36/44/87 38/46/87 99/121/87 95/117/87
f 83/100/88 94/116/88 84/101/88
f 42/50/89 45/54/89 100/122/89 101/123/89 97/124/89
f 102/125/90 103/126/90 104/127/90 52/61/90 51/60/90 105/128/90 106/129/90 107/130/90 108/131/90
f 99/121/91 98/120/91 103/126/91 102/125/91
f 100/122/92 45/66/92 56/65/92 109/132/92
f 103/126/93 110/133/93 111/134/93 104/135/93
f 98/120/94 112/136/94 110/133/94 103/126/94
f 91/111/95 88/105/95 80/97/95 81/112/95
f 31/39/96 23/25/96 88/105/96 91/113/96
f 11/13/97 29/34/97 90/110/97 81/98/97
f 113/137/98 96/118/98 114/138/98
f 93/115/99 92/114/99 115/139/99
f 115/139/100 92/114/100 96/118/100 113/137/100
f 116/140/101 82/99/69 85/102/71
f 94/116/102 102/125/102 117/141/102 84/101/102
f 114/138/103 96/118/103 82/99/103 116/140/103
f 84/101/104 117/141/104 87/104/105 85/102/106
f 93/115/107 99/121/107 102/125/107 94/116/107
f 112/136/108 118/142/108 111/134/108 110/133/108
f 118/142/109 97/124/109 104/135/109 111/134/109
f 97/124/110 101/123/110 119/143/110 104/135/110
f 101/123/111 100/122/111 109/132/111 119/143/111
f 104/127/112 119/143/112 109/132/112 56/78/112 52/61/112
f 97/119/113 118/142/113 112/136/113 98/120/113
f 95/117/114 115/139/114 113/137/114 86/103/114
f 78/94/115 116/140/115 85/102/106 87/104/105
f 77/93/116 114/138/116 116/140/116 78/94/116
f 117/141/117 120/144/117 121/145/117 122/146/117 67/79/117 21/23/117 87/104/117
f 102/125/118 108/131/118 120/144/118 117/141/118
f 86/103/119 113/137/119 114/138/119 77/93/119
f 99/121/120 93/115/120 115/139/120 95/117/120
f 107/130/121 123/147/121 124/148/121 108/131/121
f 105/128/122 51/60/122 67/79/122 122/146/122
f 105/128/123 124/149/123 123/150/123 106/129/123
f 121/145/124 125/151/124 122/146/124
f 106/129/125 123/150/125 107/130/125
f 122/146/126 125/152/126 124/149/126 105/128/126
f 120/144/127 125/153/127 121/145/127
f 120/144/128 108/131/128 124/148/128 125/153/128
